# xmcd
# 
# Track frame offsets:
#     187
#     20010
#     41777
#     61547
#     81355
#     103875
#     124270
#     141105
#     158492
#     173735
#     197530
#     211055
#     228800
#     250357
#     271522
#     290975
# 
# Disc length: 4192
# 
# Revision: 2
# Processed by: cddbd v1.5.2PL0 Copyright (c) Steve Scherf et al.
# Submitted via: BonkEnc v1.0.8
# 
DISCID=dc105e10
DTITLE=チョー・ヨンピル - 想いで迷子ベスト
DYEAR=1992
DGENRE=Pop
TTITLE0=想いで迷子
TTITLE1=想いで迷子2
TTITLE2=野郎たちの挽歌
TTITLE3=冬物語
TTITLE4=悲しみのゆくえ
TTITLE5=夕顔恋唄
TTITLE6=泣かされたって
TTITLE7=涙の身がわり
TTITLE8=窓の外の女
TTITLE9=釜山港へ帰れ
TTITLE10=ソウル・ソウル・ソウル
TTITLE11=チョップル
TTITLE12=漂流船
TTITLE13=花風
TTITLE14=忘れな草
TTITLE15=恨五百年
EXTD=
EXTT0=
EXTT1=
EXTT2=
EXTT3=
EXTT4=
EXTT5=
EXTT6=
EXTT7=
EXTT8=
EXTT9=
EXTT10=
EXTT11=
EXTT12=
EXTT13=
EXTT14=
EXTT15=
PLAYORDER=
